<svg xmlns="http://www.w3.org/2000/svg" viewBox="0 0 24.33 23.41"><defs><style>.cls-1{fill:#dad9d9;}</style></defs><g id="Layer_2" data-name="Layer 2"><g id="Layer_1-2" data-name="Layer 1"><path class="cls-1" d="M24.14,9.42a.46.46,0,0,0-.26-.83H15.59a.45.45,0,0,1-.43-.31L12.6.32a.45.45,0,0,0-.86,0l-2.57,8a.45.45,0,0,1-.43.31H.45a.46.46,0,0,0-.26.83l6.7,4.92a.46.46,0,0,1,.17.51l-2.56,8a.45.45,0,0,0,.69.51L11.9,18.4a.47.47,0,0,1,.53,0l6.71,4.92a.46.46,0,0,0,.7-.51l-2.57-8a.46.46,0,0,1,.17-.51ZM13.7,17.21H10.63l.63-4.43a2.34,2.34,0,1,1,1.81,0Z"/></g></g></svg>