<svg height="0px" width="0px" xmlns="http://www.w3.org/2000/svg" ><defs>
		<style>
			.cls-1{
				transform:scale(.85) translate(8px, 9px) ;
			}
		</style>
		<clipPath  id="membergate-admin-page-icon" ><path class="cls-1" d="M24.14,9.42a.46.46,0,0,0-.26-.83H15.59a.45.45,0,0,1-.43-.31L12.6.32a.45.45,0,0,0-.86,0l-2.57,8a.45.45,0,0,1-.43.31H.45a.46.46,0,0,0-.26.83l6.7,4.92a.46.46,0,0,1,.17.51l-2.56,8a.45.45,0,0,0,.69.51L11.9,18.4a.47.47,0,0,1,.53,0l6.71,4.92a.46.46,0,0,0,.7-.51l-2.57-8a.46.46,0,0,1,.17-.51ZM13.7,17.21H10.63l.63-4.43a2.34,2.34,0,1,1,1.81,0Z"/></clipPath></defs></svg>
